# xmcd
#
# Track frame offsets:
# 150
# 12808
# 25227
# 37107
# 48315
# 59361
# 71594
# 84989
# 96663
# 110293
# 123592
# 135080
# 148120
# 162563
# 176381
# 191425
# 204042
# 220011
#
# Disc length: 3109 seconds
#
# Revision: 0
# Processed by: cddbd v1.5.1PL0 Copyright (c) Steve Scherf et al.
# Submitted via: Audion 3.0.2 (http://www.panic.com/audion/)
#
DISCID=f50c2312
DTITLE=Brenda Lee - Brenda Lee
DYEAR=1900
DGENRE=
TTITLE0=Prisoner Song
TTITLE1=All alone am I
TTITLE2=As usual
TTITLE3=Foolnumber one
TTITLE4=Sweet Nothin
TTITLE5=I'm sorry
TTITLE6=I miss you so
TTITLE7=Losing you
TTITLE8=Only you
TTITLE9=Pretend
TTITLE10=Strangers in the night
TTITLE11=Always on my mind
TTITLE12=The end of the world
TTITLE13=You don't have to say you love me
TTITLE14=Crying time
TTITLE15=Softly
TTITLE16=Sweet memories
TTITLE17=Will you still love me tomorrow
EXTD=
EXTT0=
EXTT1=
EXTT2=
EXTT3=
EXTT4=
EXTT5=
EXTT6=
EXTT7=
EXTT8=
EXTT9=
EXTT10=
EXTT11=
EXTT12=
EXTT13=
EXTT14=
EXTT15=
EXTT16=
EXTT17=
PLAYORDER=
